# xmcd
#
# Track frame offsets:
#	150
#	25497
#	38307
#	56372
#	69972
#	84015
#	101290
#	113757
#	128677
#
# Disc length: 2013 seconds
#
# Revision: 4
# Processed by: cddbd v1.5.1PL0 Copyright (c) Steve Scherf et al.
# Submitted via: EasyCDDAExtractor 6.2.0.3
#
DISCID=5a07db09
DTITLE=Gene Clark - FireByrd
DYEAR=1984
DGENRE=Country
TTITLE0=Tambourine Man
TTITLE1=Something About You Baby
TTITLE2=Rodeo Rider
TTITLE3=Rain Song
TTITLE4=Vanessa
TTITLE5=If You Could Read My Mind
TTITLE6=Feel A Whole Lot Better
TTITLE7=Made For Love
TTITLE8=Blue Raven
EXTD=Allegiance/Takoma TAKCD7112
EXTT0=
EXTT1=
EXTT2=
EXTT3=
EXTT4=
EXTT5=
EXTT6=
EXTT7=
EXTT8=
PLAYORDER=
